# xmcd
#
# Track frame offsets:
#	150
#	12484
#	23501
#	38327
#	51918
#	76799
#	87748
#	105587
#	121590
#	139745
#	151711
#	164660
#	176645
#	192320
#	219366
#	235889
#	253499
#	262344
#	280891
#	294019
#	313538
#	330884
#
# Disc length: 4573 seconds
#
# Revision: 1
# Processed by: cddbd v1.5.2PL0 Copyright (c) Steve Scherf et al.
# Submitted via: audiograbber 1.83.01
#
DISCID=2811db16
DTITLE=Various Artist - Songs for a Winter Sky
DYEAR=1900
DGENRE=
TTITLE0=Dean Martin - I've Got My Love to Keep Me Warm
TTITLE1=Squirrel Nut Zippers - Winter Weather
TTITLE2=Three Dog Night - Joy to the World
TTITLE3=James Brown - Santa Claus go Straight to the Ghetto
TTITLE4=Winter - The Rolling Stones
TTITLE5=Nancy Wilson - What are You Doing New Year's Eve?
TTITLE6=10,000 Maniacs - Like the Weather
TTITLE7=Thurle Ravencroft - You're MEan one, Mr. Grinch
TTITLE8=Crash Test Dummies - Winter Song
TTITLE9=Burl Ives - Song For Johnny
TTITLE10=Margaret Whiting - Johnny Mercer - Baby, It's Cold Outside
TTITLE11=Rosemary CLooney - Suzy Snowflake
TTITLE12=Heart - Let's Stay In
TTITLE13=Edie Brickell - Air of December
TTITLE14=Mark Erelli - Snmowed In
TTITLE15=Lisa Loeb - Snow Day
TTITLE16=Peggy Lee - Happy Holidays
TTITLE17=Shawn Colvin - In the Bleak Mid-Winter
TTITLE18=The Cranberries - The Icicle Melts
TTITLE19=The Killers - A Great Big Sled
TTITLE20=Norah Jones - Peace
TTITLE21=John Denver - The Muppets - When the River Meets the Sea
EXTD=
EXTT0=
EXTT1=
EXTT2=
EXTT3=
EXTT4=
EXTT5=
EXTT6=
EXTT7=
EXTT8=
EXTT9=
EXTT10=
EXTT11=
EXTT12=
EXTT13=
EXTT14=
EXTT15=
EXTT16=
EXTT17=
EXTT18=
EXTT19=
EXTT20=
EXTT21=
PLAYORDER=
